<?xml version="1.0" encoding="UTF-8" standalone="no"?>
<!DOCTYPE svg PUBLIC "-//W3C//DTD SVG 1.1//EN"
 "http://www.w3.org/Graphics/SVG/1.1/DTD/svg11.dtd">
<!-- Generated by graphviz version 2.44.0 (0)
 -->
<!-- Pages: 1 -->
<svg width="1326pt" height="332pt"
 viewBox="0.00 0.00 1326.00 332.00" xmlns="http://www.w3.org/2000/svg" xmlns:xlink="http://www.w3.org/1999/xlink">
<g id="graph0" class="graph" transform="scale(1 1) rotate(0) translate(4 328)">
<polygon fill="white" stroke="transparent" points="-4,4 -4,-328 1322,-328 1322,4 -4,4"/>
<!-- Number -->
<g id="node1" class="node">
<title>Number</title>
<path fill="none" stroke="black" d="M1060,-324C1060,-324 995,-324 995,-324 989,-324 983,-318 983,-312 983,-312 983,-300 983,-300 983,-294 989,-288 995,-288 995,-288 1060,-288 1060,-288 1066,-288 1072,-294 1072,-300 1072,-300 1072,-312 1072,-312 1072,-318 1066,-324 1060,-324"/>
<text text-anchor="middle" x="1027.5" y="-301" font-family="Source Code Pro" font-size="20.00">Number</text>
</g>
<!-- BigFloat -->
<g id="node2" class="node">
<title>BigFloat</title>
<polygon fill="none" stroke="black" points="113,-108 0,-108 0,-72 113,-72 113,-108"/>
<text text-anchor="middle" x="56.5" y="-85" font-family="Source Code Pro" font-size="20.00">BigFloat</text>
</g>
<!-- AbstractFloat -->
<g id="node3" class="node">
<title>AbstractFloat</title>
<path fill="none" stroke="black" d="M375,-180C375,-180 226,-180 226,-180 220,-180 214,-174 214,-168 214,-168 214,-156 214,-156 214,-150 220,-144 226,-144 226,-144 375,-144 375,-144 381,-144 387,-150 387,-156 387,-156 387,-168 387,-168 387,-174 381,-180 375,-180"/>
<text text-anchor="middle" x="300.5" y="-157" font-family="Source Code Pro" font-size="20.00">AbstractFloat</text>
</g>
<!-- BigFloat&#45;&gt;AbstractFloat -->
<g id="edge1" class="edge">
<title>BigFloat&#45;&gt;AbstractFloat</title>
<path fill="none" stroke="black" d="M113.09,-107.24C148.37,-117.36 194.01,-130.45 231.42,-141.18"/>
<polygon fill="black" stroke="black" points="230.66,-144.61 241.24,-144 232.59,-137.88 230.66,-144.61"/>
</g>
<!-- Real -->
<g id="node10" class="node">
<title>Real</title>
<path fill="none" stroke="black" d="M998,-252C998,-252 957,-252 957,-252 951,-252 945,-246 945,-240 945,-240 945,-228 945,-228 945,-222 951,-216 957,-216 957,-216 998,-216 998,-216 1004,-216 1010,-222 1010,-228 1010,-228 1010,-240 1010,-240 1010,-246 1004,-252 998,-252"/>
<text text-anchor="middle" x="977.5" y="-229" font-family="Source Code Pro" font-size="20.00">Real</text>
</g>
<!-- AbstractFloat&#45;&gt;Real -->
<g id="edge8" class="edge">
<title>AbstractFloat&#45;&gt;Real</title>
<path fill="none" stroke="black" d="M387.27,-171.97C534,-187.14 825.79,-217.31 934.96,-228.6"/>
<polygon fill="black" stroke="black" points="934.64,-232.09 944.95,-229.63 935.36,-225.12 934.64,-232.09"/>
</g>
<!-- Float32 -->
<g id="node4" class="node">
<title>Float32</title>
<polygon fill="none" stroke="black" points="232,-108 131,-108 131,-72 232,-72 232,-108"/>
<text text-anchor="middle" x="181.5" y="-85" font-family="Source Code Pro" font-size="20.00">Float32</text>
</g>
<!-- Float32&#45;&gt;AbstractFloat -->
<g id="edge2" class="edge">
<title>Float32&#45;&gt;AbstractFloat</title>
<path fill="none" stroke="black" d="M210.61,-108.12C226.17,-117.28 245.52,-128.66 262.28,-138.52"/>
<polygon fill="black" stroke="black" points="260.88,-141.76 271.28,-143.81 264.43,-135.72 260.88,-141.76"/>
</g>
<!-- Int8 -->
<g id="node5" class="node">
<title>Int8</title>
<polygon fill="none" stroke="black" points="217,-36 152,-36 152,0 217,0 217,-36"/>
<text text-anchor="middle" x="184.5" y="-13" font-family="Source Code Pro" font-size="20.00">Int8</text>
</g>
<!-- Signed -->
<g id="node6" class="node">
<title>Signed</title>
<path fill="none" stroke="black" d="M565,-108C565,-108 500,-108 500,-108 494,-108 488,-102 488,-96 488,-96 488,-84 488,-84 488,-78 494,-72 500,-72 500,-72 565,-72 565,-72 571,-72 577,-78 577,-84 577,-84 577,-96 577,-96 577,-102 571,-108 565,-108"/>
<text text-anchor="middle" x="532.5" y="-85" font-family="Source Code Pro" font-size="20.00">Signed</text>
</g>
<!-- Int8&#45;&gt;Signed -->
<g id="edge3" class="edge">
<title>Int8&#45;&gt;Signed</title>
<path fill="none" stroke="black" d="M217.37,-33.46C220.09,-34.4 222.82,-35.27 225.5,-36 331.94,-65.14 365.83,-47.91 477.87,-72.11"/>
<polygon fill="black" stroke="black" points="477.34,-75.58 487.87,-74.33 478.86,-68.74 477.34,-75.58"/>
</g>
<!-- Integer -->
<g id="node9" class="node">
<title>Integer</title>
<path fill="none" stroke="black" d="M924,-180C924,-180 847,-180 847,-180 841,-180 835,-174 835,-168 835,-168 835,-156 835,-156 835,-150 841,-144 847,-144 847,-144 924,-144 924,-144 930,-144 936,-150 936,-156 936,-156 936,-168 936,-168 936,-174 930,-180 924,-180"/>
<text text-anchor="middle" x="885.5" y="-157" font-family="Source Code Pro" font-size="20.00">Integer</text>
</g>
<!-- Signed&#45;&gt;Integer -->
<g id="edge15" class="edge">
<title>Signed&#45;&gt;Integer</title>
<path fill="none" stroke="black" d="M577.21,-99.87C639.98,-112.31 754.43,-135.01 824.83,-148.97"/>
<polygon fill="black" stroke="black" points="824.4,-152.45 834.89,-150.96 825.76,-145.59 824.4,-152.45"/>
</g>
<!-- UInt32 -->
<g id="node7" class="node">
<title>UInt32</title>
<polygon fill="none" stroke="black" points="823,-36 734,-36 734,0 823,0 823,-36"/>
<text text-anchor="middle" x="778.5" y="-13" font-family="Source Code Pro" font-size="20.00">UInt32</text>
</g>
<!-- Unsigned -->
<g id="node8" class="node">
<title>Unsigned</title>
<path fill="none" stroke="black" d="M930,-108C930,-108 841,-108 841,-108 835,-108 829,-102 829,-96 829,-96 829,-84 829,-84 829,-78 835,-72 841,-72 841,-72 930,-72 930,-72 936,-72 942,-78 942,-84 942,-84 942,-96 942,-96 942,-102 936,-108 930,-108"/>
<text text-anchor="middle" x="885.5" y="-85" font-family="Source Code Pro" font-size="20.00">Unsigned</text>
</g>
<!-- UInt32&#45;&gt;Unsigned -->
<g id="edge4" class="edge">
<title>UInt32&#45;&gt;Unsigned</title>
<path fill="none" stroke="black" d="M804.68,-36.12C818.54,-45.19 835.74,-56.45 850.71,-66.24"/>
<polygon fill="black" stroke="black" points="848.94,-69.26 859.22,-71.81 852.77,-63.41 848.94,-69.26"/>
</g>
<!-- Unsigned&#45;&gt;Integer -->
<g id="edge22" class="edge">
<title>Unsigned&#45;&gt;Integer</title>
<path fill="none" stroke="black" d="M885.5,-108.3C885.5,-116.02 885.5,-125.29 885.5,-133.89"/>
<polygon fill="black" stroke="black" points="882,-133.9 885.5,-143.9 889,-133.9 882,-133.9"/>
</g>
<!-- Integer&#45;&gt;Real -->
<g id="edge5" class="edge">
<title>Integer&#45;&gt;Real</title>
<path fill="none" stroke="black" d="M908.24,-180.3C919.94,-189.2 934.36,-200.18 947.01,-209.8"/>
<polygon fill="black" stroke="black" points="944.94,-212.63 955.02,-215.9 949.18,-207.06 944.94,-212.63"/>
</g>
<!-- Real&#45;&gt;Number -->
<g id="edge21" class="edge">
<title>Real&#45;&gt;Number</title>
<path fill="none" stroke="black" d="M989.86,-252.3C995.73,-260.53 1002.87,-270.52 1009.34,-279.58"/>
<polygon fill="black" stroke="black" points="1006.62,-281.79 1015.28,-287.9 1012.32,-277.72 1006.62,-281.79"/>
</g>
<!-- Int128 -->
<g id="node11" class="node">
<title>Int128</title>
<polygon fill="none" stroke="black" points="324,-36 235,-36 235,0 324,0 324,-36"/>
<text text-anchor="middle" x="279.5" y="-13" font-family="Source Code Pro" font-size="20.00">Int128</text>
</g>
<!-- Int128&#45;&gt;Signed -->
<g id="edge6" class="edge">
<title>Int128&#45;&gt;Signed</title>
<path fill="none" stroke="black" d="M324.25,-33.59C327.04,-34.43 329.8,-35.24 332.5,-36 393.79,-53.36 412.42,-53.94 477.78,-71.9"/>
<polygon fill="black" stroke="black" points="477.2,-75.37 487.78,-74.68 479.08,-68.63 477.2,-75.37"/>
</g>
<!-- Bool -->
<g id="node12" class="node">
<title>Bool</title>
<polygon fill="none" stroke="black" points="1025,-108 960,-108 960,-72 1025,-72 1025,-108"/>
<text text-anchor="middle" x="992.5" y="-85" font-family="Source Code Pro" font-size="20.00">Bool</text>
</g>
<!-- Bool&#45;&gt;Integer -->
<g id="edge7" class="edge">
<title>Bool&#45;&gt;Integer</title>
<path fill="none" stroke="black" d="M966.32,-108.12C952.46,-117.19 935.26,-128.45 920.29,-138.24"/>
<polygon fill="black" stroke="black" points="918.23,-135.41 911.78,-143.81 922.06,-141.26 918.23,-135.41"/>
</g>
<!-- Int64 -->
<g id="node13" class="node">
<title>Int64</title>
<polygon fill="none" stroke="black" points="419,-36 342,-36 342,0 419,0 419,-36"/>
<text text-anchor="middle" x="380.5" y="-13" font-family="Source Code Pro" font-size="20.00">Int64</text>
</g>
<!-- Int64&#45;&gt;Signed -->
<g id="edge9" class="edge">
<title>Int64&#45;&gt;Signed</title>
<path fill="none" stroke="black" d="M417.68,-36.12C438.37,-45.65 464.3,-57.59 486.28,-67.72"/>
<polygon fill="black" stroke="black" points="484.89,-70.93 495.44,-71.93 487.82,-64.57 484.89,-70.93"/>
</g>
<!-- Float16 -->
<g id="node14" class="node">
<title>Float16</title>
<polygon fill="none" stroke="black" points="351,-108 250,-108 250,-72 351,-72 351,-108"/>
<text text-anchor="middle" x="300.5" y="-85" font-family="Source Code Pro" font-size="20.00">Float16</text>
</g>
<!-- Float16&#45;&gt;AbstractFloat -->
<g id="edge10" class="edge">
<title>Float16&#45;&gt;AbstractFloat</title>
<path fill="none" stroke="black" d="M300.5,-108.3C300.5,-116.02 300.5,-125.29 300.5,-133.89"/>
<polygon fill="black" stroke="black" points="297,-133.9 300.5,-143.9 304,-133.9 297,-133.9"/>
</g>
<!-- BigInt -->
<g id="node15" class="node">
<title>BigInt</title>
<polygon fill="none" stroke="black" points="526,-36 437,-36 437,0 526,0 526,-36"/>
<text text-anchor="middle" x="481.5" y="-13" font-family="Source Code Pro" font-size="20.00">BigInt</text>
</g>
<!-- BigInt&#45;&gt;Signed -->
<g id="edge11" class="edge">
<title>BigInt&#45;&gt;Signed</title>
<path fill="none" stroke="black" d="M494.11,-36.3C500.1,-44.53 507.38,-54.52 513.98,-63.58"/>
<polygon fill="black" stroke="black" points="511.32,-65.87 520.04,-71.9 516.98,-61.75 511.32,-65.87"/>
</g>
<!-- Int16 -->
<g id="node16" class="node">
<title>Int16</title>
<polygon fill="none" stroke="black" points="621,-36 544,-36 544,0 621,0 621,-36"/>
<text text-anchor="middle" x="582.5" y="-13" font-family="Source Code Pro" font-size="20.00">Int16</text>
</g>
<!-- Int16&#45;&gt;Signed -->
<g id="edge12" class="edge">
<title>Int16&#45;&gt;Signed</title>
<path fill="none" stroke="black" d="M570.14,-36.3C564.27,-44.53 557.13,-54.52 550.66,-63.58"/>
<polygon fill="black" stroke="black" points="547.68,-61.72 544.72,-71.9 553.38,-65.79 547.68,-61.72"/>
</g>
<!-- UInt64 -->
<g id="node17" class="node">
<title>UInt64</title>
<polygon fill="none" stroke="black" points="930,-36 841,-36 841,0 930,0 930,-36"/>
<text text-anchor="middle" x="885.5" y="-13" font-family="Source Code Pro" font-size="20.00">UInt64</text>
</g>
<!-- UInt64&#45;&gt;Unsigned -->
<g id="edge13" class="edge">
<title>UInt64&#45;&gt;Unsigned</title>
<path fill="none" stroke="black" d="M885.5,-36.3C885.5,-44.02 885.5,-53.29 885.5,-61.89"/>
<polygon fill="black" stroke="black" points="882,-61.9 885.5,-71.9 889,-61.9 882,-61.9"/>
</g>
<!-- UInt8 -->
<g id="node18" class="node">
<title>UInt8</title>
<polygon fill="none" stroke="black" points="1025,-36 948,-36 948,0 1025,0 1025,-36"/>
<text text-anchor="middle" x="986.5" y="-13" font-family="Source Code Pro" font-size="20.00">UInt8</text>
</g>
<!-- UInt8&#45;&gt;Unsigned -->
<g id="edge14" class="edge">
<title>UInt8&#45;&gt;Unsigned</title>
<path fill="none" stroke="black" d="M961.79,-36.12C948.83,-45.11 932.77,-56.24 918.73,-65.97"/>
<polygon fill="black" stroke="black" points="916.53,-63.24 910.3,-71.81 920.52,-68.99 916.53,-63.24"/>
</g>
<!-- Float64 -->
<g id="node19" class="node">
<title>Float64</title>
<polygon fill="none" stroke="black" points="470,-108 369,-108 369,-72 470,-72 470,-108"/>
<text text-anchor="middle" x="419.5" y="-85" font-family="Source Code Pro" font-size="20.00">Float64</text>
</g>
<!-- Float64&#45;&gt;AbstractFloat -->
<g id="edge16" class="edge">
<title>Float64&#45;&gt;AbstractFloat</title>
<path fill="none" stroke="black" d="M390.39,-108.12C374.83,-117.28 355.48,-128.66 338.72,-138.52"/>
<polygon fill="black" stroke="black" points="336.57,-135.72 329.72,-143.81 340.12,-141.76 336.57,-135.72"/>
</g>
<!-- UInt16 -->
<g id="node20" class="node">
<title>UInt16</title>
<polygon fill="none" stroke="black" points="1132,-36 1043,-36 1043,0 1132,0 1132,-36"/>
<text text-anchor="middle" x="1087.5" y="-13" font-family="Source Code Pro" font-size="20.00">UInt16</text>
</g>
<!-- UInt16&#45;&gt;Unsigned -->
<g id="edge17" class="edge">
<title>UInt16&#45;&gt;Unsigned</title>
<path fill="none" stroke="black" d="M1042.67,-34.54C1013.7,-44.57 975.7,-57.74 944.31,-68.62"/>
<polygon fill="black" stroke="black" points="943.11,-65.33 934.81,-71.91 945.4,-71.95 943.11,-65.33"/>
</g>
<!-- Irrational -->
<g id="node21" class="node">
<title>Irrational</title>
<polygon fill="none" stroke="black" points="1180,-108 1043,-108 1043,-72 1180,-72 1180,-108"/>
<text text-anchor="middle" x="1111.5" y="-85" font-family="Source Code Pro" font-size="20.00">Irrational</text>
</g>
<!-- AbstractIrrational -->
<g id="node22" class="node">
<title>AbstractIrrational</title>
<path fill="none" stroke="black" d="M1175,-180C1175,-180 966,-180 966,-180 960,-180 954,-174 954,-168 954,-168 954,-156 954,-156 954,-150 960,-144 966,-144 966,-144 1175,-144 1175,-144 1181,-144 1187,-150 1187,-156 1187,-156 1187,-168 1187,-168 1187,-174 1181,-180 1175,-180"/>
<text text-anchor="middle" x="1070.5" y="-157" font-family="Source Code Pro" font-size="20.00">AbstractIrrational</text>
</g>
<!-- Irrational&#45;&gt;AbstractIrrational -->
<g id="edge18" class="edge">
<title>Irrational&#45;&gt;AbstractIrrational</title>
<path fill="none" stroke="black" d="M1101.37,-108.3C1096.65,-116.36 1090.94,-126.11 1085.72,-135.02"/>
<polygon fill="black" stroke="black" points="1082.55,-133.5 1080.52,-143.9 1088.59,-137.04 1082.55,-133.5"/>
</g>
<!-- AbstractIrrational&#45;&gt;Real -->
<g id="edge23" class="edge">
<title>AbstractIrrational&#45;&gt;Real</title>
<path fill="none" stroke="black" d="M1047.51,-180.3C1035.69,-189.2 1021.11,-200.18 1008.32,-209.8"/>
<polygon fill="black" stroke="black" points="1006.11,-207.09 1000.22,-215.9 1010.32,-212.68 1006.11,-207.09"/>
</g>
<!-- UInt128 -->
<g id="node23" class="node">
<title>UInt128</title>
<polygon fill="none" stroke="black" points="1251,-36 1150,-36 1150,0 1251,0 1251,-36"/>
<text text-anchor="middle" x="1200.5" y="-13" font-family="Source Code Pro" font-size="20.00">UInt128</text>
</g>
<!-- UInt128&#45;&gt;Unsigned -->
<g id="edge19" class="edge">
<title>UInt128&#45;&gt;Unsigned</title>
<path fill="none" stroke="black" d="M1149.73,-33.96C1146.95,-34.67 1144.2,-35.36 1141.5,-36 1060.5,-55.26 1036.5,-53.24 951.94,-71.76"/>
<polygon fill="black" stroke="black" points="951.17,-68.35 942.16,-73.93 952.68,-75.18 951.17,-68.35"/>
</g>
<!-- Complex -->
<g id="node24" class="node">
<title>Complex</title>
<polygon fill="none" stroke="black" points="1129,-252 1028,-252 1028,-216 1129,-216 1129,-252"/>
<text text-anchor="middle" x="1078.5" y="-229" font-family="Source Code Pro" font-size="20.00">Complex</text>
</g>
<!-- Complex&#45;&gt;Number -->
<g id="edge20" class="edge">
<title>Complex&#45;&gt;Number</title>
<path fill="none" stroke="black" d="M1065.89,-252.3C1059.9,-260.53 1052.62,-270.52 1046.02,-279.58"/>
<polygon fill="black" stroke="black" points="1043.02,-277.75 1039.96,-287.9 1048.68,-281.87 1043.02,-277.75"/>
</g>
<!-- Rational -->
<g id="node25" class="node">
<title>Rational</title>
<polygon fill="none" stroke="black" points="1318,-180 1205,-180 1205,-144 1318,-144 1318,-180"/>
<text text-anchor="middle" x="1261.5" y="-157" font-family="Source Code Pro" font-size="20.00">Rational</text>
</g>
<!-- Rational&#45;&gt;Real -->
<g id="edge24" class="edge">
<title>Rational&#45;&gt;Real</title>
<path fill="none" stroke="black" d="M1204.83,-178.02C1202.01,-178.71 1199.23,-179.37 1196.5,-180 1120.94,-197.51 1097.51,-192.85 1020.13,-215.77"/>
<polygon fill="black" stroke="black" points="1018.98,-212.46 1010.42,-218.71 1021,-219.17 1018.98,-212.46"/>
</g>
<!-- Int32 -->
<g id="node26" class="node">
<title>Int32</title>
<polygon fill="none" stroke="black" points="716,-36 639,-36 639,0 716,0 716,-36"/>
<text text-anchor="middle" x="677.5" y="-13" font-family="Source Code Pro" font-size="20.00">Int32</text>
</g>
<!-- Int32&#45;&gt;Signed -->
<g id="edge25" class="edge">
<title>Int32&#45;&gt;Signed</title>
<path fill="none" stroke="black" d="M642.03,-36.12C622.38,-45.61 597.78,-57.49 576.87,-67.58"/>
<polygon fill="black" stroke="black" points="575.34,-64.43 567.86,-71.93 578.38,-70.74 575.34,-64.43"/>
</g>
</g>
</svg>
